# xmcd CD database file
#
# Track frame offsets:
#	150
#	19095
#	35948
#	60020
#	74822
#	99990
#	124103
#	152152
#	181265
#	195759
#
# Disc length: 2844 seconds
#
# Revision: 1
# Processed by: cddbd v1.5.2PL0 Copyright (c) Steve Scherf et al.
# Submitted via: CDex 1.70beta2
#
DISCID=7e0b1a0a
DTITLE=GoGo Penguin - V 2 0
DYEAR=2014
DGENRE=Jazz
TTITLE0=Murmuration
TTITLE1=Garden Dog Barbecue
TTITLE2=Kamaloka
TTITLE3=Fort
TTITLE4=One Percent
TTITLE5=Home
TTITLE6=The Letter
TTITLE7=To Drown In You
TTITLE8=Shock And Awe
TTITLE9=Hopopono
EXTD=YEAR: 2014
EXTT0=
EXTT1=
EXTT2=
EXTT3=
EXTT4=
EXTT5=
EXTT6=
EXTT7=
EXTT8=
EXTT9=
PLAYORDER=
